<svg xmlns="http://www.w3.org/2000/svg" viewBox="0 0 256 256" fill="none">
  <rect width="256" height="256" fill="#000000"/>
  <g transform="translate(44 44)">
    <rect x="0"   y="0"   width="36" height="36" fill="none" stroke="#c9a23e" stroke-width="2" stroke-opacity="0.35"/>
    <rect x="44"  y="0"   width="36" height="36" fill="none" stroke="#c9a23e" stroke-width="2" stroke-opacity="0.35"/>
    <rect x="88"  y="0"   width="36" height="36" fill="none" stroke="#c9a23e" stroke-width="2" stroke-opacity="0.35"/>
    <rect x="132" y="0"   width="36" height="36" fill="none" stroke="#c9a23e" stroke-width="2" stroke-opacity="0.35"/>
    <rect x="0"   y="44"  width="36" height="36" fill="none" stroke="#c9a23e" stroke-width="2" stroke-opacity="0.35"/>
    <rect x="44"  y="44"  width="36" height="36" fill="none" stroke="#c9a23e" stroke-width="2" stroke-opacity="0.35"/>
    <rect x="88"  y="44"  width="36" height="36" fill="none" stroke="#c9a23e" stroke-width="2" stroke-opacity="0.35"/>
    <rect x="132" y="44"  width="36" height="36" fill="none" stroke="#c9a23e" stroke-width="2" stroke-opacity="0.35"/>
    <rect x="0"   y="88"  width="36" height="36" fill="none" stroke="#c9a23e" stroke-width="2" stroke-opacity="0.35"/>
    <rect x="44"  y="88"  width="36" height="36" fill="none" stroke="#c9a23e" stroke-width="2" stroke-opacity="0.35"/>
    <rect x="88"  y="88"  width="36" height="36" fill="none" stroke="#c9a23e" stroke-width="2" stroke-opacity="0.35"/>
    <rect x="132" y="88"  width="36" height="36" fill="none" stroke="#c9a23e" stroke-width="2" stroke-opacity="0.35"/>
    <rect x="0"   y="132" width="36" height="36" fill="none" stroke="#c9a23e" stroke-width="2" stroke-opacity="0.35"/>
    <rect x="44"  y="132" width="36" height="36" fill="none" stroke="#c9a23e" stroke-width="2" stroke-opacity="0.35"/>
    <rect x="88"  y="132" width="36" height="36" fill="none" stroke="#c9a23e" stroke-width="2" stroke-opacity="0.35"/>
    <rect x="132" y="132" width="36" height="36" fill="none" stroke="#c9a23e" stroke-width="2" stroke-opacity="0.35"/>
  </g>
  <line x1="56"  y1="172" x2="172" y2="56"  stroke="#c9a23e" stroke-width="14" stroke-linecap="square"/>
  <line x1="84"  y1="200" x2="200" y2="84"  stroke="#d8d8d8" stroke-width="14" stroke-linecap="square"/>
</svg>
