<svg xmlns="http://www.w3.org/2000/svg" viewBox="0 0 1200 630" fill="none">
  <rect width="1200" height="630" fill="#000000"/>

  <!-- Isotipo TijerApp — posición (96, 215), escala 3.125x (200×200) -->
  <g transform="translate(96 215) scale(3.125)" stroke-linejoin="round" stroke-linecap="round">
    <!-- Ala izquierda -->
    <path d="M10 18 L26 18 L27.5 18.2 L28.8 18.8 L29.9 20 L31.2 23.5 L19 23.5 L17.2 23.3 L15.8 22.6 L14.7 21.4 L10 18 Z"
          fill="#c9a23e" stroke="#c9a23e" stroke-width="2"/>
    <!-- Ala derecha -->
    <path d="M38 18 L54 18 L49.3 21.4 L48.2 22.6 L46.8 23.3 L45 23.5 L32.8 23.5 L34.1 20 L35.2 18.8 L36.5 18.2 L38 18 Z"
          fill="#c9a23e" stroke="#c9a23e" stroke-width="2"/>
    <!-- Stem -->
    <path d="M28.7 27.4 L35.3 27.4 L34.1 47 L29.9 47 L28.7 27.4 Z"
          fill="#c9a23e" stroke="#c9a23e" stroke-width="2"/>
  </g>

  <!-- Wordmark -->
  <text x="380" y="332" font-family="Geist, system-ui, sans-serif" font-weight="900" font-size="92" letter-spacing="6">
    <tspan fill="#c9a23e">TIJER</tspan><tspan fill="#d8d8d8">APP</tspan>
  </text>

  <!-- Tagline -->
  <text x="380" y="392" font-family="Geist, system-ui, sans-serif" font-weight="400" font-size="22" fill="#8a8a8a" letter-spacing="2">
    SISTEMA DE TURNOS PARA BARBERÍAS MODERNAS
  </text>

  <!-- Hairline divider -->
  <line x1="96" y1="500" x2="1104" y2="500" stroke="#c9a23e" stroke-opacity="0.4" stroke-width="1"/>

  <!-- Footer -->
  <text x="96" y="555" font-family="Geist Mono, ui-monospace, monospace" font-weight="500" font-size="16" fill="#5a5a5a" letter-spacing="3">
    TIJERAPP.COM
  </text>
</svg>
